<svg width="35" height="35" viewBox="0 0 35 35" fill="none" xmlns="http://www.w3.org/2000/svg">
<path d="M28.75 17.5C28.75 23.7132 23.7132 28.75 17.5 28.75C11.2868 28.75 6.25 23.7132 6.25 17.5C6.25 11.2868 11.2868 6.25 17.5 6.25C23.7132 6.25 28.75 11.2868 28.75 17.5Z" fill="#FFC700"/>
<path d="M18.9062 2.03125C18.9062 2.8079 18.2767 3.4375 17.5 3.4375C16.7233 3.4375 16.0938 2.8079 16.0938 2.03125C16.0938 1.2546 16.7233 0.625 17.5 0.625C18.2767 0.625 18.9062 1.2546 18.9062 2.03125Z" fill="#FFC700"/>
<path d="M18.9062 32.9688C18.9062 33.7454 18.2767 34.375 17.5 34.375C16.7233 34.375 16.0938 33.7454 16.0938 32.9688C16.0938 32.1921 16.7233 31.5625 17.5 31.5625C18.2767 31.5625 18.9062 32.1921 18.9062 32.9688Z" fill="#FFC700"/>
<path d="M32.9688 18.9062C32.1921 18.9062 31.5625 18.2767 31.5625 17.5C31.5625 16.7233 32.1921 16.0938 32.9688 16.0938C33.7454 16.0938 34.375 16.7233 34.375 17.5C34.375 18.2767 33.7454 18.9062 32.9688 18.9062Z" fill="#FFC700"/>
<path d="M2.03125 18.9062C1.2546 18.9062 0.625 18.2767 0.625 17.5C0.625 16.7233 1.2546 16.0938 2.03125 16.0938C2.8079 16.0938 3.4375 16.7233 3.4375 17.5C3.4375 18.2767 2.8079 18.9062 2.03125 18.9062Z" fill="#FFC700"/>
<path d="M29.4324 7.55632C28.8832 8.10549 27.9929 8.10549 27.4437 7.55632C26.8945 7.00714 26.8945 6.11676 27.4437 5.56758C27.9929 5.01841 28.8832 5.01841 29.4324 5.56758C29.9816 6.11676 29.9816 7.00714 29.4324 7.55632Z" fill="#FFC700"/>
<path d="M7.5563 29.4324C7.00713 29.9816 6.11674 29.9816 5.56756 29.4324C5.01839 28.8833 5.01839 27.9929 5.56756 27.4437C6.11674 26.8945 7.00713 26.8945 7.5563 27.4437C8.10548 27.9929 8.10548 28.8833 7.5563 29.4324Z" fill="#FFC700"/>
<path d="M27.4437 29.4323C26.8945 28.8831 26.8945 27.9927 27.4437 27.4436C27.9929 26.8944 28.8832 26.8944 29.4324 27.4436C29.9816 27.9927 29.9816 28.8831 29.4324 29.4323C28.8832 29.9815 27.9929 29.9815 27.4437 29.4323Z" fill="#FFC700"/>
<path d="M5.56757 7.55617C5.01839 7.007 5.01839 6.11661 5.56757 5.56743C6.11674 5.01826 7.00713 5.01826 7.5563 5.56743C8.10548 6.11661 8.10548 7.007 7.5563 7.55617C7.00713 8.10535 6.11674 8.10535 5.56757 7.55617Z" fill="#FFC700"/>
</svg>
